<svg width="194.000000" height="70.000000" viewBox="0 0 194 70" fill="none" xmlns="http://www.w3.org/2000/svg" xmlns:xlink="http://www.w3.org/1999/xlink">
	<desc>
			Created with Pixso.
	</desc>
	<defs>
		<clipPath id="clip2_370">
			<rect id="github" width="34.999992" height="35.000008" transform="translate(18.200012 18.199707)" fill="white" fill-opacity="0"/>
		</clipPath>
	</defs>
	<path id="Shopup" d="M85.25 25.8438L88.6328 25.8438C88.5312 22.1172 85.2422 19.4062 80.5078 19.4062C75.8438 19.4062 72.2578 22.0781 72.2578 26.0938C72.2578 29.3281 74.5781 31.2266 78.3203 32.2422L81.0703 32.9922C83.5547 33.6484 85.4766 34.4688 85.4766 36.5312C85.4766 38.8047 83.3047 40.3047 80.3203 40.3047C77.6172 40.3047 75.3672 39.1016 75.1562 36.5703L71.6328 36.5703C71.8672 40.7812 75.125 43.3828 80.3438 43.3828C85.8047 43.3828 88.9531 40.5078 88.9531 36.5703C88.9531 32.375 85.2188 30.75 82.2578 30.0234L79.9922 29.4297C78.1719 28.9688 75.75 28.1172 75.7578 25.8828C75.7578 23.9062 77.5703 22.4453 80.4297 22.4453C83.1016 22.4453 85 23.6953 85.25 25.8438ZM96.2706 32.6328C96.2706 29.8516 98.0362 28.2578 100.458 28.2578C102.794 28.2578 104.192 29.75 104.192 32.3047L104.192 43L107.591 43L107.591 31.8984C107.591 27.5469 105.208 25.3203 101.614 25.3203C98.8956 25.3203 97.2628 26.5 96.4425 28.3828L96.2237 28.3828L96.2237 19.7266L92.8722 19.7266L92.8722 43L96.2706 43L96.2706 32.6328ZM119.485 43.3516C124.407 43.3516 127.626 39.75 127.626 34.3516C127.626 28.9219 124.407 25.3203 119.485 25.3203C114.571 25.3203 111.352 28.9219 111.352 34.3516C111.352 39.75 114.571 43.3516 119.485 43.3516ZM119.501 40.5C116.282 40.5 114.782 37.6953 114.782 34.3438C114.782 31 116.282 28.1562 119.501 28.1562C122.696 28.1562 124.196 31 124.196 34.3438C124.196 37.6953 122.696 40.5 119.501 40.5Z" fill="#FFAA00" fill-opacity="1.000000" fill-rule="evenodd"/>
	<path id="Shopup" d="M131.242 49.5469L135.352 49.5469L135.352 40.25L135.523 40.25C136.172 41.5234 137.523 43.3047 140.523 43.3047C144.633 43.3047 147.719 40.0469 147.719 34.2969C147.719 28.4766 144.547 25.3203 140.508 25.3203C137.43 25.3203 136.148 27.1719 135.523 28.4297L135.281 28.4297L135.281 25.5469L131.242 25.5469L131.242 49.5469ZM135.273 34.2734C135.273 30.8828 136.727 28.6953 139.375 28.6953C142.117 28.6953 143.523 31.0234 143.523 34.2734C143.523 37.5469 142.094 39.9297 139.375 39.9297C136.75 39.9297 135.273 37.6562 135.273 34.2734ZM162.356 35.6562C162.356 38.3203 160.457 39.6328 158.637 39.6328C156.661 39.6328 155.34 38.2422 155.34 36.0234L155.34 25.5469L151.231 25.5469L151.231 36.6562C151.231 40.8516 153.614 43.2266 157.043 43.2266C159.661 43.2266 161.496 41.8516 162.293 39.8984L162.481 39.8984L162.481 43L166.465 43L166.465 25.5469L162.356 25.5469L162.356 35.6562ZM170.697 49.5469L174.806 49.5469L174.806 40.25L174.978 40.25C175.626 41.5234 176.978 43.3047 179.978 43.3047C184.087 43.3047 187.173 40.0469 187.173 34.2969C187.173 28.4766 184.001 25.3203 179.962 25.3203C176.884 25.3203 175.603 27.1719 174.978 28.4297L174.736 28.4297L174.736 25.5469L170.697 25.5469L170.697 49.5469ZM174.728 34.2734C174.728 30.8828 176.181 28.6953 178.83 28.6953C181.572 28.6953 182.978 31.0234 182.978 34.2734C182.978 37.5469 181.548 39.9297 178.83 39.9297C176.205 39.9297 174.728 37.6562 174.728 34.2734Z" fill="#FFE55D" fill-opacity="1.000000" fill-rule="evenodd"/>
	<rect id="octagon" width="70.000000" height="70.000000" fill="#FFFFFF" fill-opacity="0"/>
	<path id="Vector" d="M47.075 5.83325L64.1666 22.9248L64.1666 47.075L47.075 64.1665L22.925 64.1665L5.83331 47.075L5.83331 22.9248L22.925 5.83325L47.075 5.83325Z" stroke="#FFAA00" stroke-opacity="1.000000" stroke-width="2.800000" stroke-linejoin="round"/>
	<path id="Fill 102" d="M64.1913 44.0283C63.7417 44.0283 63.3079 44.0957 62.8989 44.2197C62.1527 41.0764 59.3276 38.738 55.9557 38.738C52.6049 38.738 49.7939 41.0476 49.0269 44.1616C48.6804 44.075 48.3182 44.0283 47.9449 44.0283C45.4874 44.0283 43.4952 46.0205 43.4952 48.4778C43.4952 50.9353 45.4874 52.9272 47.9449 52.9272L54.8674 52.9272C55.2223 52.9817 55.5858 53.0098 55.9557 53.0098C56.3258 53.0098 56.6892 52.9817 57.0441 52.9272L64.1913 52.9272C66.6487 52.9272 68.6408 50.9353 68.6408 48.4778C68.6408 46.0205 66.6487 44.0283 64.1913 44.0283Z" fill="#B0D6F4" fill-opacity="1.000000" fill-rule="evenodd"/>
	<rect id="github" width="34.999992" height="35.000008" transform="translate(18.200012 18.199707)" fill="#FFFFFF" fill-opacity="0"/>
	<g clip-path="url(#clip2_370)">
		<path id="Vector" d="M21.1168 41.5332L31.3251 45.9082C24.0334 48.0957 24.0334 42.2625 21.1168 41.5332ZM41.5334 50.2832L41.5334 44.6394C41.5881 43.9441 41.4942 43.2451 41.2578 42.5889C41.0215 41.9324 40.6481 41.334 40.1626 40.8333C44.7418 40.3228 49.5543 38.5874 49.5543 30.625C49.5539 28.5889 48.7707 26.6309 47.3668 25.1562C48.0316 23.3748 47.9846 21.4058 47.2355 19.6582C47.2355 19.6582 45.5146 19.1477 41.5334 21.8167C38.1909 20.9106 34.6676 20.9106 31.3251 21.8167C27.3438 19.1477 25.623 19.6582 25.623 19.6582C24.874 21.4058 24.827 23.3748 25.4918 25.1562C24.0773 26.6418 23.2933 28.6174 23.3043 30.6687C23.3043 38.5728 28.1168 40.3081 32.6959 40.877C32.2161 41.3728 31.8461 41.9641 31.6099 42.6123C31.3737 43.2605 31.2767 43.9512 31.3251 44.6394L31.3251 50.2832" stroke="#FFE55D" stroke-opacity="1.000000" stroke-width="2.800000" stroke-linejoin="round" stroke-linecap="round"/>
	</g>
</svg>
